<?xml version="1.0"?>
<svg xmlns="http://www.w3.org/2000/svg" width="512" height="512" viewBox="0 0 512 512"><g><path d="M464,104H208V56a24.032,24.032,0,0,0-24-24H72A24.032,24.032,0,0,0,48,56v48A40.04,40.04,0,0,0,8,144V368a40.04,40.04,0,0,0,40,40H204.68l-11.33,32H160a8,8,0,0,0-8,8v24a8,8,0,0,0,8,8H352a8,8,0,0,0,8-8V448a8,8,0,0,0-8-8H317.65l-11.33-32H464a40.04,40.04,0,0,0,40-40V144A40.04,40.04,0,0,0,464,104ZM64,56a8.011,8.011,0,0,1,8-8H184a8.011,8.011,0,0,1,8,8v80a8.011,8.011,0,0,1-8,8h-8a8,8,0,0,0-8,8v25.9l-25.85-31.02A8,8,0,0,0,136,144H72a8.011,8.011,0,0,1-8-8ZM184,184h40v88H96V184h56c.08,0,.16-.01.24-.01l17.61,21.13A8,8,0,0,0,184,200ZM344,456v8H168v-8ZM210.32,440l11.33-32h67.7l11.33,32ZM488,368a24.032,24.032,0,0,1-24,24H48a24.032,24.032,0,0,1-24-24v-8H488Zm0-24H24V144a24.032,24.032,0,0,1,24-24v16a24.032,24.032,0,0,0,24,24h60.25l6.67,8H88a8,8,0,0,0-8,8V280a8,8,0,0,0,8,8H232a8,8,0,0,0,8-8V176a8,8,0,0,0-8-8H184v-8a24.032,24.032,0,0,0,24-24V120H464a24.032,24.032,0,0,1,24,24Z"/><path d="M104,368H48a8,8,0,0,0,0,16h56a8,8,0,0,0,0-16Z"/><path d="M136,368h-8a8,8,0,0,0,0,16h8a8,8,0,0,0,0-16Z"/><path d="M99.794,134.806a8,8,0,0,0,7.784.349l64-32a8,8,0,0,0,0-14.31l-64-32A8,8,0,0,0,96,64v64A8,8,0,0,0,99.794,134.806ZM112,76.944,150.111,96,112,115.056Z"/><path d="M264,216h32a8,8,0,0,0,8-8V176a8,8,0,0,0-8-8H264a8,8,0,0,0-8,8v32A8,8,0,0,0,264,216Zm8-32h16v16H272Z"/><path d="M320,184H432a8,8,0,0,0,0-16H320a8,8,0,0,0,0,16Z"/><path d="M320,216h79a8,8,0,0,0,0-16H320a8,8,0,0,0,0,16Z"/><path d="M264,288h32a8,8,0,0,0,8-8V248a8,8,0,0,0-8-8H264a8,8,0,0,0-8,8v32A8,8,0,0,0,264,288Zm8-32h16v16H272Z"/><path d="M320,256H432a8,8,0,0,0,0-16H320a8,8,0,0,0,0,16Z"/><path d="M320,288h79a8,8,0,0,0,0-16H320a8,8,0,0,0,0,16Z"/></g></svg>
