<?xml version="1.0" standalone="no"?>
<!DOCTYPE svg PUBLIC "-//W3C//DTD SVG 20010904//EN"
 "http://www.w3.org/TR/2001/REC-SVG-20010904/DTD/svg10.dtd">
<svg version="1.0" xmlns="http://www.w3.org/2000/svg"
 width="500.000000pt" height="500.000000pt" viewBox="0 0 500.000000 500.000000"
 preserveAspectRatio="xMidYMid meet">

<g transform="translate(0.000000,500.000000) scale(0.100000,-0.100000)"
fill="#000000" stroke="none">
<path d="M0 2510 l0 -2490 2490 0 2490 0 0 2490 0 2490 -2490 0 -2490 0 0
-2490z m4840 -5 l0 -2345 -2345 0 -2345 0 0 2345 0 2345 2345 0 2345 0 0
-2345z"/>
<path d="M670 2500 l0 -1830 1830 0 1830 0 0 1830 0 1830 -1830 0 -1830 0 0
-1830z m2580 5 l0 -165 -755 0 -755 0 0 165 0 165 755 0 755 0 0 -165z"/>
</g>
</svg>
